<svg width="79" height="32" viewBox="0 0 79 32" fill="none" xmlns="http://www.w3.org/2000/svg">
<g id="Group">
<path id="Vector" d="M2.18275 24.3811V31.6295H0V15.6089H10.6667L10.955 17.1327C10.9138 17.1327 10.9138 17.1327 10.8726 17.0915C10.7902 17.0915 10.749 17.0915 10.749 17.0503C10.5843 16.8032 9.96654 16.5561 8.93694 16.309C7.86615 16.0619 6.46589 15.9384 4.69498 15.9384H2.18275V23.9692H9.14286V24.3399H2.18275V24.3811Z" fill="black"/>
<path id="Vector_2" d="M18.2857 27.0992C18.2857 26.6874 18.2857 26.2755 18.2857 25.8637C18.2857 25.4107 18.2445 24.9988 18.2445 24.5458C18.0798 24.9165 17.7915 25.1636 17.3797 25.4107C16.9678 25.6166 16.5148 25.8225 16.0206 25.9872C15.5264 26.152 14.991 26.3167 14.4556 26.4403C13.9202 26.605 13.3848 26.7697 12.9318 27.0168C12.4788 27.2639 12.1081 27.5522 11.8198 27.9229C11.5315 28.2935 11.3668 28.7878 11.3668 29.3643C11.3668 30.0233 11.5315 30.4763 11.861 30.8058C12.1905 31.1352 12.6435 31.3 13.2201 31.3C13.7967 31.3 14.538 31.1352 15.3205 30.7646C16.1441 30.3939 17.0502 29.8585 18.0386 29.1584C17.7915 29.4055 17.462 29.6938 17.0502 30.0233C16.6384 30.3527 16.1441 30.641 15.6088 30.9293C15.0734 31.2176 14.538 31.4647 14.0026 31.6295C13.426 31.8354 12.9318 31.9177 12.4788 31.9177C12.1081 31.9177 11.6963 31.8766 11.3256 31.7942C10.955 31.7118 10.5843 31.5883 10.2548 31.3823C9.92536 31.1764 9.67825 30.9293 9.47233 30.5998C9.26641 30.2704 9.14286 29.8174 9.14286 29.282C9.14286 28.8289 9.26641 28.4171 9.51352 28.0876C9.76062 27.7581 10.0901 27.4699 10.5019 27.2228C10.9138 26.9757 11.408 26.7697 11.9434 26.605C12.4788 26.4403 13.0142 26.2755 13.5907 26.152C14.1673 25.9872 14.7027 25.8637 15.2381 25.7401C15.7735 25.6166 16.2677 25.4518 16.6795 25.2871C17.1326 25.1224 17.462 24.9165 17.7503 24.7105C17.9974 24.4634 18.1622 24.2163 18.2033 23.8868C18.121 23.3926 18.0386 22.9396 17.8739 22.4866C17.7503 22.0336 17.5444 21.6629 17.2973 21.3334C17.0502 21.004 16.7207 20.7569 16.3501 20.5509C15.9794 20.345 15.4852 20.3038 14.9498 20.3038C14.1261 20.345 13.5084 20.4274 13.0965 20.5921C12.6847 20.7569 12.3964 20.9628 12.1905 21.2099C11.9846 21.457 11.9434 21.7041 11.9434 21.9924C11.9434 22.2807 11.9434 22.5278 11.9434 22.7749C11.9434 23.0632 11.861 23.2691 11.6963 23.4338C11.5315 23.5986 11.3256 23.6397 11.0785 23.6397C10.8314 23.6397 10.5843 23.5574 10.3372 23.3515C10.0901 23.1455 10.0077 22.8984 10.0077 22.569C10.0077 22.1159 10.2136 21.7041 10.5843 21.3746C10.955 21.0452 11.4492 20.7569 11.9846 20.5509C12.52 20.345 13.0965 20.1803 13.6731 20.0979C14.2497 20.0155 14.7027 19.9744 15.0734 19.9744C16.2265 19.9744 17.1737 20.1391 17.8739 20.4686C18.574 20.798 19.1094 21.2511 19.4801 21.7865C19.8507 22.3219 20.0978 22.9808 20.2214 23.7221C20.3449 24.4634 20.3861 25.2047 20.3861 26.0284V31.6706H18.3269V27.0992H18.2857Z" fill="black"/>
<path id="Vector_3" d="M24.9163 30.8057C25.1223 31.094 25.4517 31.2999 25.9048 31.4235C26.3578 31.547 26.8108 31.6294 27.3462 31.6294C27.8404 31.6294 28.3758 31.5882 28.87 31.4646C29.4054 31.3411 29.8584 31.1763 30.2703 30.9704C30.6821 30.7645 31.0528 30.5174 31.2999 30.1879C31.5882 29.8996 31.7117 29.529 31.7117 29.1171C31.7117 28.6229 31.5058 28.2111 31.0528 27.9228C30.5997 27.6345 30.0232 27.3874 29.3642 27.1815C28.7053 26.9756 27.964 26.7697 27.1815 26.6049C26.399 26.4402 25.6577 26.1931 24.9987 25.946C24.3398 25.6577 23.7632 25.3282 23.3102 24.8752C22.8571 24.4222 22.6512 23.8456 22.6512 23.1455C22.6512 22.4865 22.816 21.9511 23.1454 21.5393C23.4749 21.1274 23.9279 20.798 24.4221 20.5509C24.9575 20.3038 25.4929 20.139 26.1107 20.0567C26.7284 19.9743 27.2638 19.9331 27.7992 19.9331C28.0463 19.9331 28.3758 19.9743 28.7876 20.0155C29.1995 20.0567 29.6113 20.1802 29.982 20.3449C30.3526 20.5097 30.7233 20.6744 31.0116 20.9215C31.2999 21.1686 31.4646 21.4981 31.4646 21.8688C31.4646 22.1159 31.3822 22.3218 31.1763 22.4865C30.9704 22.6513 30.7645 22.7336 30.5174 22.7336C30.1879 22.7336 29.982 22.6513 29.8172 22.5277C29.6525 22.4041 29.5701 22.2394 29.4878 22.0335C29.4054 21.8688 29.3642 21.6628 29.323 21.4569C29.2819 21.251 29.2407 21.0863 29.1171 20.9627C28.9112 20.7156 28.6641 20.5097 28.417 20.4273C28.1287 20.3449 27.7992 20.2626 27.4286 20.2626C27.0167 20.2626 26.6049 20.3038 26.1931 20.3861C25.74 20.4685 25.3694 20.5921 24.9987 20.7568C24.6281 20.9215 24.3398 21.1686 24.1339 21.4157C23.8867 21.704 23.8044 22.0335 23.8044 22.4041C23.8044 22.7748 23.9279 23.1043 24.2162 23.3514C24.4633 23.5985 24.834 23.8044 25.2458 24.0103C25.6577 24.1751 26.1519 24.3398 26.7284 24.4633C27.2638 24.5869 27.8404 24.7105 28.417 24.8752C28.9936 25.0399 29.5701 25.2047 30.1055 25.3694C30.6409 25.5341 31.1351 25.7812 31.5882 26.0283C32 26.2754 32.3707 26.6049 32.6178 26.9756C32.8649 27.3462 33.0296 27.8404 33.0296 28.3758C33.0296 28.9936 32.8649 29.529 32.5354 29.982C32.2059 30.435 31.7941 30.7645 31.2587 31.0528C30.7233 31.3411 30.1467 31.547 29.4878 31.6706C28.8288 31.7941 28.1287 31.8765 27.4286 31.8765C27.1815 31.8765 26.9344 31.8765 26.6049 31.8353C26.2754 31.7941 25.9459 31.7941 25.5753 31.7117C25.2046 31.6706 24.8752 31.5882 24.5045 31.4646C24.1339 31.3823 23.8456 31.2587 23.5573 31.094C23.269 30.9292 23.0631 30.7645 22.8571 30.5586C22.6924 30.3527 22.61 30.1056 22.61 29.7761C22.61 29.529 22.6924 29.3643 22.8983 29.1995C23.1042 29.0348 23.3102 28.9524 23.5573 28.9524C23.8867 28.9524 24.0927 29.0348 24.2574 29.1583C24.4221 29.2819 24.5045 29.4466 24.5869 29.6525C24.6281 29.8585 24.7104 30.0232 24.7104 30.2291C24.7516 30.5174 24.834 30.6821 24.9163 30.8057Z" fill="black"/>
<path id="Vector_4" d="M34.5946 15.6088L36.6538 14.4968V31.6706H34.5946V15.6088ZM36.9009 21.3334C37.0656 21.0863 37.3127 20.8804 37.5598 20.7156C37.8069 20.5509 38.0952 20.3861 38.4247 20.3038C38.7542 20.2214 39.0425 20.0979 39.3719 20.0567C39.7014 20.0155 39.9897 19.9743 40.3192 19.9743C41.2664 19.9743 42.0489 20.0979 42.6667 20.3038C43.2844 20.5097 43.8198 20.8392 44.1905 21.2098C44.6023 21.5805 44.8906 22.0335 45.0965 22.5277C45.3024 23.0219 45.4672 23.5573 45.5496 24.0927C45.6319 24.6693 45.6731 25.2047 45.7143 25.8224C45.7143 26.399 45.7143 26.9756 45.7143 27.511V31.6706H43.6551V27.3051C43.6551 26.8932 43.6551 26.4814 43.6551 25.9872C43.6551 25.493 43.6139 24.9988 43.5727 24.4634C43.5315 23.928 43.408 23.4338 43.2844 22.9396C43.1609 22.4453 42.955 22.0335 42.7078 21.6217C42.4607 21.251 42.0901 20.9215 41.6782 20.7156C41.2664 20.4685 40.731 20.345 40.0721 20.345C39.5367 20.345 39.1248 20.3861 38.7542 20.4685C38.3835 20.5509 38.0952 20.6332 37.8481 20.7156C37.601 20.798 37.3951 20.9215 37.2716 21.0451C37.1068 21.1686 36.9833 21.251 36.9009 21.3334Z" fill="black"/>
<g id="Vector_5">
<path d="M50.3814 19.6036V31.6293H48.3222V20.7155L50.3814 19.6036Z" fill="black"/>
<path d="M47.7577 16.0611C47.4331 16.2318 46.6312 16.3076 46.6312 16.3076V16.611C46.6312 16.611 47.4331 16.6869 47.7577 16.8576C48.0632 17.0282 48.3305 17.2558 48.5215 17.5592C48.7315 17.8625 48.8652 18.2039 48.9606 18.6021C49.0561 19.0003 49.0943 19.3435 49.0943 19.3435H49.3616C49.3616 19.3435 49.4559 18.7991 49.4953 18.6021C49.5908 18.2039 49.7435 17.8625 49.9344 17.5592C50.1254 17.2558 50.3736 17.0282 50.6982 16.8576C51.0228 16.6869 51.8248 16.611 51.8248 16.611V16.3076C51.8248 16.3076 51.0228 16.2318 50.6982 16.0611C50.3927 15.8905 50.1254 15.6629 49.9344 15.3595C49.7244 15.0561 49.5908 14.7148 49.4953 14.3166C49.4515 14.0819 49.3616 13.4839 49.3616 13.4839H49.0943C49.0943 13.4839 49.0056 14.165 48.9606 14.3166C48.8652 14.7148 48.7124 15.0561 48.5215 15.3595C48.3305 15.6629 48.0823 15.8905 47.7577 16.0611Z" fill="black"/>
</g>
<path id="Vector_6" d="M52.8584 25.946C52.8584 25.1635 52.9819 24.4222 53.229 23.6809C53.4761 22.9395 53.888 22.3218 54.4234 21.7452C54.9587 21.1686 55.6177 20.7568 56.4002 20.4273C57.1827 20.0978 58.1299 19.9331 59.2007 19.9331C60.2715 19.9331 61.2187 20.0978 62.0012 20.4273C62.7837 20.7568 63.4427 21.2098 63.978 21.7864C64.5134 22.363 64.8841 22.9807 65.1312 23.722C65.3783 24.4222 65.5019 25.2047 65.5019 25.946C65.5019 26.7285 65.3783 27.4698 65.1312 28.2111C64.8841 28.9524 64.4723 29.5702 63.9369 30.1467C63.4015 30.7233 62.7425 31.1352 61.96 31.4646C61.1775 31.7941 60.2303 31.9588 59.2007 31.9588C58.1711 31.9588 57.1827 31.7941 56.4002 31.4646C55.6177 31.1352 54.9587 30.6821 54.4234 30.1056C53.888 29.529 53.5173 28.9112 53.229 28.1699C52.9819 27.4698 52.8584 26.7285 52.8584 25.946ZM58.1299 20.4273C57.4298 20.4273 56.8532 20.592 56.4002 20.9215C55.9472 21.251 55.5765 21.6628 55.3294 22.157C55.0823 22.6513 54.9587 23.269 54.8764 23.928C54.8352 24.5869 54.8764 25.287 54.9999 25.9872C55.1235 26.6873 55.3294 27.3462 55.6589 28.0464C55.9472 28.7053 56.3178 29.2819 56.7708 29.8173C57.2239 30.3115 57.7181 30.7645 58.2947 31.0528C58.8712 31.3823 59.489 31.547 60.1891 31.547C60.8892 31.547 61.4246 31.3823 61.8777 31.0528C62.3307 30.7233 62.6602 30.3115 62.9073 29.8173C63.1544 29.3231 63.2779 28.7053 63.3603 28.0464C63.4015 27.3874 63.3603 26.6873 63.2367 25.9872C63.1132 25.287 62.8661 24.6281 62.5778 23.928C62.2895 23.269 61.9188 22.6924 61.4658 22.157C61.0128 21.6628 60.5186 21.2098 59.942 20.9215C59.3654 20.6332 58.83 20.4273 58.1299 20.4273Z" fill="black"/>
<path id="Vector_7" d="M67.2684 20.7155L69.3276 19.6035V31.6293H67.2684V20.7155ZM69.5335 21.3332C69.6983 21.0861 69.9454 20.8802 70.1925 20.7155C70.4396 20.5507 70.7279 20.386 71.0574 20.3036C71.3868 20.2213 71.6751 20.0977 72.0046 20.0565C72.3341 20.0154 72.6223 19.9742 72.9518 19.9742C73.899 19.9742 74.6815 20.0977 75.2993 20.3036C75.9171 20.5096 76.4525 20.839 76.8231 21.2097C77.235 21.5804 77.5232 22.0334 77.7292 22.5276C77.9351 23.0218 78.0998 23.5572 78.1822 24.0926C78.2646 24.6692 78.3057 25.2045 78.3469 25.8223C78.3469 26.3989 78.3469 26.9755 78.3469 27.5109V31.6704H76.2877V27.3049C76.2877 26.8931 76.2877 26.4813 76.2877 25.987C76.2877 25.4928 76.2465 24.9986 76.2054 24.4632C76.1642 23.9278 76.0406 23.4336 75.9171 22.9394C75.7935 22.4452 75.5876 22.0334 75.3405 21.6215C75.0934 21.2509 74.7227 20.9214 74.3109 20.7155C73.899 20.4684 73.3637 20.3448 72.7047 20.3448C72.1693 20.3448 71.7575 20.386 71.3868 20.4684C71.0162 20.5507 70.7279 20.6331 70.4808 20.7155C70.2337 20.7979 70.0278 20.9214 69.9042 21.045C69.7395 21.1685 69.6159 21.2509 69.5335 21.3332Z" fill="black"/>
<path id="Vector_8" d="M22.4814 0.86499C24.1287 0.86499 25.5702 1.11209 26.8057 1.56512C28.0412 2.05933 29.0708 2.67709 29.8945 3.45958C30.7182 4.24208 31.3359 5.10695 31.7478 6.13655C32.1596 7.12496 32.3655 8.15457 32.3655 9.22535C32.3655 10.255 32.1596 11.2846 31.7478 12.273C31.3359 13.2614 30.7182 14.1674 29.8945 14.9499C29.0708 15.7324 28.0412 16.3502 26.8057 16.8444C25.5702 17.3386 24.1287 17.5857 22.4814 17.5857C20.834 17.5857 19.3926 17.3386 18.157 16.8444C16.9215 16.3502 15.8919 15.7324 15.0682 14.9499C14.2446 14.1674 13.6268 13.2614 13.215 12.273C12.8031 11.2846 12.5972 10.255 12.5972 9.22535C12.5972 8.15457 12.8031 7.16615 13.215 6.13655C13.6268 5.14813 14.2446 4.24208 15.0682 3.45958C15.8919 2.67709 16.9215 2.05933 18.157 1.56512C19.3926 1.11209 20.834 0.86499 22.4814 0.86499ZM23.7169 17.0503C24.9524 17.0503 26.0232 16.8444 26.8881 16.3914C27.7529 15.9383 28.453 15.3618 28.9884 14.6205C29.5238 13.8791 29.8533 13.0555 30.018 12.1082C30.1828 11.161 30.1828 10.2138 30.0592 9.22535C29.8945 8.23693 29.6062 7.2897 29.112 6.34247C28.6178 5.39524 28.0412 4.57155 27.2999 3.83024C26.5586 3.08893 25.6937 2.51235 24.6641 2.05933C23.6345 1.6063 22.5225 1.40038 21.287 1.40038C20.0103 1.40038 18.9395 1.6063 18.0747 2.05933C17.2098 2.51235 16.5097 3.08893 16.0155 3.83024C15.4801 4.57155 15.1506 5.39524 14.9859 6.34247C14.8211 7.2897 14.8211 8.23693 14.9447 9.22535C15.1094 10.2138 15.3977 11.161 15.8507 12.1082C16.3038 13.0555 16.9215 13.8791 17.6628 14.6205C18.4041 15.3618 19.3102 15.9383 20.2986 16.3914C21.3282 16.8032 22.4814 17.0503 23.7169 17.0503Z" fill="black"/>
<path id="Vector_9" d="M34.5946 4.73624L36.6538 3.62427V10.4608C36.695 11.1609 36.8185 11.8611 37.0245 12.4788C37.2304 13.0966 37.5187 13.6732 37.9305 14.1262C38.3012 14.5792 38.7542 14.9911 39.3308 15.2382C39.8662 15.5265 40.4839 15.65 41.184 15.65C42.0489 15.65 42.7078 15.3617 43.2432 14.8263C43.7786 14.2909 44.1081 13.5908 44.314 12.7671C44.5199 11.9434 44.5611 11.0374 44.4788 10.0902C44.3964 9.14293 44.1493 8.23688 43.7786 7.4132C43.408 6.58952 42.9138 5.88939 42.296 5.354C41.6782 4.8186 40.9369 4.53032 40.1133 4.53032C39.825 4.53032 39.4955 4.5715 39.2072 4.69505C38.9189 4.8186 38.6306 4.94216 38.3423 5.10689C38.0541 5.27163 37.8069 5.47755 37.601 5.68347C37.3539 5.88939 37.1892 6.13649 37.0656 6.34241C37.3951 5.64229 37.9305 5.06571 38.6306 4.61268C39.3719 4.15966 40.1544 3.95374 40.9781 3.95374C42.0077 3.95374 42.8726 4.11848 43.6139 4.44795C44.3552 4.77742 44.9318 5.23045 45.426 5.80702C45.879 6.3836 46.2497 7.00136 46.4556 7.74267C46.6615 8.48398 46.7851 9.18411 46.7851 9.96661C46.7851 10.7491 46.6615 11.4492 46.4556 12.1905C46.2497 12.8907 45.879 13.5496 45.426 14.1262C44.973 14.7028 44.3552 15.1558 43.6139 15.4853C42.8726 15.8147 42.0077 16.0207 41.0193 16.0207C39.9485 16.0207 39.0425 15.8559 38.3423 15.5676C37.6422 15.2794 37.1068 14.8675 36.695 14.3733V21.4158H34.6358V4.73624H34.5946Z" fill="black"/>
<path id="Vector_10" d="M51.5953 7.90741C51.5953 8.6899 51.7189 9.4724 51.966 10.2961C52.2131 11.1198 52.5838 11.8199 53.0368 12.52C53.4898 13.179 54.0664 13.7144 54.7253 14.1262C55.3843 14.538 56.1256 14.744 56.9081 14.744C57.6494 14.744 58.3083 14.5792 58.8849 14.2909C59.4615 13.9615 59.9557 13.5908 60.3675 13.179C60.7794 12.7671 61.1089 12.3141 61.3148 11.9023C61.5619 11.4904 61.6854 11.1609 61.6854 10.955C61.6442 11.4904 61.4383 12.067 61.1089 12.6024C60.7794 13.1378 60.3675 13.632 59.8321 14.085C59.2968 14.538 58.7202 14.8675 58.0201 15.1558C57.3199 15.4029 56.5786 15.5676 55.7961 15.5676C54.7253 15.5676 53.7781 15.4029 52.9956 15.0734C52.2131 14.744 51.5542 14.2909 51.0188 13.7144C50.4834 13.1378 50.1127 12.52 49.8244 11.7787C49.5773 11.0786 49.4538 10.2961 49.4538 9.55477C49.4538 8.52517 49.6185 7.6603 49.948 6.91899C50.2775 6.17768 50.7305 5.55992 51.2659 5.06571C51.8013 4.5715 52.419 4.20084 53.1191 3.99492C53.8193 3.74782 54.5194 3.62427 55.2195 3.62427C55.7549 3.62427 56.2903 3.70664 56.7845 3.87137C57.3199 4.03611 57.7729 4.28321 58.226 4.61268C58.679 4.94216 59.0497 5.31281 59.3791 5.72465C59.7086 6.17768 59.9557 6.6307 60.1616 7.16609C60.244 7.4132 60.2028 7.61912 60.0793 7.78386C59.9557 7.94859 59.7498 8.03096 59.4615 8.03096H51.5953V7.90741ZM54.8077 3.91256C54.2723 3.91256 53.8193 3.99492 53.4074 4.20084C52.9956 4.40676 52.6661 4.65387 52.419 4.98334C52.1719 5.31281 51.966 5.72465 51.8013 6.13649C51.6777 6.58952 51.5953 7.04254 51.5542 7.53675H58.3083C58.226 7.24846 58.1024 6.91899 57.9377 6.50715C57.773 6.09531 57.5258 5.68347 57.2376 5.31281C56.9493 4.94216 56.6198 4.61268 56.208 4.3244C55.7961 4.03611 55.3019 3.91256 54.8077 3.91256Z" fill="black"/>
<path id="Vector_11" d="M62.8037 4.6127L64.8629 3.50073V15.5265H62.8037V4.6127ZM65.11 5.23046C65.2747 4.98336 65.5218 4.77744 65.769 4.6127C66.0161 4.44797 66.3043 4.28323 66.6338 4.20086C66.9633 4.07731 67.2516 3.99494 67.581 3.95376C67.9105 3.91257 68.1988 3.87139 68.5283 3.87139C69.4755 3.87139 70.258 3.99494 70.8758 4.20086C71.4935 4.40678 72.0289 4.73625 72.3996 5.10691C72.8114 5.47757 73.0997 5.93059 73.3056 6.4248C73.5115 6.91901 73.6763 7.4544 73.7587 7.98979C73.841 8.56637 73.8822 9.10176 73.9234 9.71952C73.9234 10.2961 73.9234 10.8727 73.9234 11.4081V15.5677H71.8642V11.2021C71.8642 10.7903 71.8642 10.3785 71.8642 9.84307C71.8642 9.34887 71.823 8.85466 71.7818 8.31927C71.7406 7.78387 71.6171 7.28966 71.4935 6.79546C71.37 6.30125 71.1641 5.88941 70.917 5.47757C70.6699 5.10691 70.2992 4.77744 69.8874 4.53033C69.4755 4.28323 68.9401 4.15968 68.2812 4.15968C67.7458 4.15968 67.3339 4.20086 66.9633 4.28323C66.5926 4.3656 66.3043 4.44797 66.0572 4.53033C65.8101 4.6127 65.6042 4.73625 65.4807 4.85981C65.3159 5.02454 65.1924 5.14809 65.11 5.23046Z" fill="black"/>
</g>
</svg>
