<svg width="25" height="25" viewBox="0 0 25 25" fill="none" xmlns="http://www.w3.org/2000/svg">
<g id="Twitter">
<path id="Vector" d="M22.9 6.33332C22.1344 6.67332 21.312 6.90212 20.4488 7.00532C21.3304 6.47732 22.0064 5.64132 22.3248 4.64452C21.5008 5.13332 20.5872 5.48852 19.6144 5.68052C18.836 4.85092 17.7272 4.33252 16.5 4.33252C14.1432 4.33252 12.2328 6.24372 12.2328 8.59972C12.2328 8.93412 12.2712 9.26052 12.3432 9.57172C8.7968 9.39412 5.6528 7.69492 3.5472 5.11252C3.1808 5.74292 2.9704 6.47572 2.9704 7.25892C2.9704 8.73892 3.7232 10.0453 4.868 10.8101C4.1688 10.7877 3.5104 10.5957 2.9352 10.2765C2.9352 10.2949 2.9352 10.3117 2.9352 10.3301C2.9352 12.3981 4.4056 14.1229 6.3584 14.5141C6.0008 14.6117 5.6232 14.6637 5.2336 14.6637C4.9592 14.6637 4.6912 14.6365 4.4312 14.5877C4.9744 16.2829 6.5504 17.5173 8.4176 17.5517C6.9576 18.6965 5.1176 19.3789 3.1176 19.3789C2.7736 19.3789 2.4336 19.3589 2.0992 19.3189C3.988 20.5293 6.2304 21.2357 8.6408 21.2357C16.4904 21.2357 20.7816 14.7333 20.7816 9.09412C20.7816 8.90932 20.7776 8.72532 20.7696 8.54212C21.604 7.93972 22.328 7.18852 22.9 6.33332Z" fill="#333333"/>
</g>
</svg>
