<svg width="99" height="9" viewBox="0 0 99 9" fill="none" xmlns="http://www.w3.org/2000/svg">
<path id="Burberry" fill-rule="evenodd" clip-rule="evenodd" d="M0.550674 7.62107H1.86666V1.04113H0.550674V0.766968C2.14083 0.766968 3.62131 0.766968 5.21146 0.766968C6.19845 0.766968 7.40478 0.821801 8.2821 1.1508C8.88526 1.42496 9.21426 1.97329 9.21426 2.52162C9.21426 3.06995 8.88526 3.34411 8.39177 3.72794C8.1176 3.89244 7.9531 3.94727 7.56927 4.05694C8.1176 4.11177 8.50143 4.22144 9.04976 4.55043C9.59809 4.93426 9.87225 5.48259 9.87225 5.97609C9.87225 6.57925 9.43359 7.18241 8.66593 7.40174C7.51444 7.8404 6.19845 7.8404 4.9373 7.8404H0.550674V7.62107ZM4.05997 7.62107H4.99213C5.81462 7.62107 6.41779 7.45657 6.91128 7.29207C7.34994 7.07274 7.73377 6.68891 7.73377 5.97609C7.73377 5.15359 7.51444 4.55043 6.58228 4.27627C6.14362 4.1666 4.00514 4.22144 4.00514 4.22144V7.62107H4.05997ZM4.05997 3.89244C5.04697 3.89244 6.14362 3.94727 6.52745 3.78277C7.13061 3.50861 7.34994 3.23444 7.34994 2.46679C7.34994 1.80879 7.13061 1.47979 6.74678 1.3153C6.30812 1.09596 5.54046 1.04113 4.82763 1.04113H4.05997V3.89244ZM38.1111 7.62107H39.4271V1.04113H38.1111V0.766968C39.7013 0.766968 41.2366 0.766968 42.7719 0.766968C43.7589 0.766968 44.9652 0.821801 45.8426 1.1508C46.5006 1.42496 46.7747 1.97329 46.7747 2.52162C46.7747 3.06995 46.4457 3.34411 45.9522 3.72794C45.6781 3.89244 45.5136 3.94727 45.1297 4.05694C45.6781 4.11177 46.0619 4.22144 46.6651 4.55043C47.2134 4.93426 47.4327 5.48259 47.4327 5.97609C47.4327 6.57925 46.9941 7.18241 46.2812 7.40174C45.1297 7.8404 43.7589 7.8404 42.5526 7.8404H38.1111V7.62107ZM41.6753 7.62107H42.6074C43.4299 7.62107 44.0331 7.45657 44.5266 7.29207C44.9652 7.07274 45.3491 6.68891 45.3491 5.97609C45.3491 5.15359 45.1846 4.55043 44.1976 4.27627C43.7589 4.1666 41.6753 4.22144 41.6753 4.22144V7.62107ZM41.6753 3.89244C42.6623 3.89244 43.7041 3.94727 44.1428 3.78277C44.7459 3.50861 44.9653 3.23444 44.9653 2.46679C44.9653 1.80879 44.6911 1.47979 44.3073 1.26046C43.8686 1.04113 43.1009 0.986299 42.3881 0.986299H41.6753V3.89244ZM13.4364 6.08575V1.04113H11.9559V0.766968H16.8909V1.04113H15.4652V6.03092C15.4652 6.52441 15.6845 6.85341 16.1232 7.12757C16.507 7.45657 17.0005 7.62107 17.9327 7.62107C19.0293 7.62107 19.8518 7.40174 20.2905 6.96308C20.784 6.57925 21.0033 6.08575 21.0033 5.59226V1.04113H19.5777V0.766968H23.0321V1.04113H21.6065V5.64709C21.6065 6.35991 21.2775 6.96308 20.6743 7.40174C19.9615 7.8404 19.2487 8.05973 17.9875 8.05973C16.7812 8.05973 15.4104 7.89523 14.6427 7.56624C13.8202 7.23724 13.4364 6.74374 13.4364 6.08575ZM26.4866 7.62107V1.04113H25.0609V0.766968H30.5442C31.7505 0.821801 32.3537 0.766968 33.1762 1.09596C33.7245 1.3153 34.1084 1.80879 34.1084 2.46679C34.1084 3.83761 32.8472 4.0021 31.9699 4.1666C32.7375 4.22144 33.1762 4.3311 33.6697 4.55043C34.1632 4.8246 34.3825 5.26326 34.4922 5.48259C34.6018 5.86642 34.547 6.30508 34.547 6.68891C34.6018 7.40174 34.9857 7.6759 35.5888 7.62107C35.7533 7.56624 35.9178 7.5114 36.0275 7.40174L36.192 7.73074C35.8082 8.0049 35.3695 8.11457 34.9308 8.05973C34.218 8.05973 33.6149 7.95007 33.1762 7.6759C32.7375 7.40174 32.4634 7.01791 32.3537 6.46958C32.3537 6.03092 32.3537 5.59226 32.244 5.15359C31.9699 4.44077 31.0377 4.3311 30.4346 4.3311H28.6799V7.6759H30.1604V7.89523H24.9513V7.62107H26.4866ZM28.6251 3.94727H30.5442C31.4764 3.94727 32.0247 3.56344 32.0247 2.41195C32.0247 1.47979 31.257 0.986299 30.4346 0.986299H28.6251V3.94727ZM76.9328 7.62107V1.04113H75.5071V0.766968H80.9904C82.1967 0.821801 82.7999 0.766968 83.5675 1.09596C84.1707 1.3153 84.5545 1.80879 84.5545 2.46679C84.5545 3.83761 83.2934 4.0021 82.3612 4.1666C83.1837 4.22144 83.5676 4.3311 84.061 4.55043C84.6094 4.8246 84.8287 5.26326 84.8835 5.48259C85.048 5.86642 84.9932 6.30508 84.9932 6.68891C85.048 7.40174 85.4319 7.6759 86.035 7.62107C86.1995 7.56624 86.364 7.5114 86.4737 7.40174L86.6382 7.73074C86.3092 8.0049 85.8157 8.11457 85.377 8.05973C84.6642 8.05973 84.1159 7.95007 83.6772 7.6759C83.2386 7.40174 82.9096 7.01791 82.8547 6.46958C82.7999 6.03092 82.7999 5.59226 82.6354 5.15359C82.4161 4.44077 81.4291 4.3311 80.8259 4.3311H79.1261V7.6759H80.6066V7.89523H75.3975V7.62107H76.9328ZM79.0713 3.94727H80.9356C81.8677 3.94727 82.4709 3.56344 82.4709 2.41195C82.4709 1.47979 81.7032 0.986299 80.8807 0.986299H79.0713V3.94727ZM63.8826 7.62107V1.04113H62.4569V0.766968H67.9402C69.1465 0.821801 69.7497 0.766968 70.5722 1.09596C71.1205 1.3153 71.5592 1.80879 71.5592 2.46679C71.5592 3.83761 70.298 4.0021 69.3659 4.1666C70.1335 4.22144 70.5722 4.3311 71.0657 4.55043C71.5592 4.8246 71.7785 5.26326 71.8882 5.48259C72.0527 5.86642 71.943 6.30508 71.943 6.68891C71.9978 7.40174 72.3817 7.6759 72.9848 7.62107C73.1493 7.56624 73.3138 7.5114 73.4235 7.40174L73.588 7.73074C73.259 8.0049 72.7655 8.11457 72.3268 8.05973C71.614 8.05973 71.0108 7.95007 70.5722 7.6759C70.1335 7.40174 69.8593 7.01791 69.7497 6.46958C69.6948 6.03092 69.6948 5.59226 69.5852 5.15359C69.311 4.44077 68.3789 4.3311 67.7757 4.3311H66.021V7.6759H67.5564V7.89523H62.3472V7.62107H63.8826ZM66.0759 3.94727H67.995C68.9272 3.94727 69.4755 3.56344 69.4755 2.41195C69.4755 1.47979 68.7079 0.986299 67.8854 0.986299H66.0759V3.94727ZM49.9002 7.62107H51.3259V1.04113H49.9002V0.766968H58.9476V2.90545H58.6186C58.4541 2.35712 58.0703 1.58946 57.6316 1.3153C57.3026 1.1508 56.8091 1.04113 55.9866 1.04113H53.5192V4.05694C54.0675 4.05694 54.8352 4.11177 55.3287 3.89244C55.7125 3.72794 55.9866 3.28928 56.0415 2.85061H56.4253V5.70192H56.0415C55.9866 5.15359 55.6576 4.8246 55.2738 4.6601C54.89 4.4956 54.1772 4.4956 53.4643 4.4956V7.6759H56.206C57.4123 7.6759 57.7961 7.5114 58.2896 7.23724C58.7283 6.90824 59.1121 6.19542 59.2218 5.48259H59.5508V7.89523H49.9002V7.62107ZM90.2572 7.62107H91.957V4.55043L88.6122 1.04113H87.1865V0.766968H92.6698V1.04113H91.0248L93.8213 4.1666L96.7274 1.04113H94.8083V0.766968H98.8659V1.04113H97.3306L94.1503 4.55043V7.62107H95.8501V7.89523H90.3668V7.62107H90.2572Z" fill="#333333"/>
</svg>
