<svg width="100" height="14" viewBox="0 0 100 14" fill="none" xmlns="http://www.w3.org/2000/svg">
<g id="Tiffany &#38; Co">
<path id="Vector" fill-rule="evenodd" clip-rule="evenodd" d="M23.021 3.64856L23.4127 5.99851H23.1889C22.8531 4.54378 21.5663 3.92832 20.1115 3.92832C19.8877 3.92832 19.6639 3.92832 19.3842 4.04022V8.0687H19.9437C21.1187 8.0687 21.7901 7.62109 21.7901 6.66992H22.0139V9.97104H21.846C21.7341 9.24367 21.5103 8.34845 19.9996 8.34845H19.4401V12.0972C19.4401 12.7126 19.7199 13.0483 20.6151 13.0483V13.2722H16.6426V13.0483C17.5378 13.0483 17.8175 12.7126 17.8175 12.0972V4.82353C17.8175 4.26402 17.4818 3.87236 16.5866 3.87236V3.64856H23.021Z" fill="#333333"/>
<path id="Vector_2" fill-rule="evenodd" clip-rule="evenodd" d="M31.022 3.64856L31.4137 5.99851H31.1899C30.8542 4.54378 29.5673 3.92832 28.1126 3.92832C27.8887 3.92832 27.6649 3.92832 27.3852 4.04022V8.0687H27.9447C29.1197 8.0687 29.7911 7.62109 29.7911 6.66992H30.0149V9.97104H29.847C29.7351 9.24367 29.5113 8.34845 28.0006 8.34845H27.4411V12.0972C27.4411 12.7126 27.7209 13.0483 28.6161 13.0483V13.2722H24.6436V13.0483C25.5388 13.0483 25.8186 12.7126 25.8186 12.0972V4.82353C25.8186 4.26402 25.4828 3.87236 24.5876 3.87236V3.64856H31.022Z" fill="#333333"/>
<path id="Vector_3" fill-rule="evenodd" clip-rule="evenodd" d="M14.6843 3.64856V3.87236C14.0129 3.87236 13.6212 4.20807 13.6212 4.82353V12.0412C13.6212 12.7126 14.0688 12.9924 14.6843 12.9924V13.2162H10.9356V12.9924C11.607 12.9364 11.9986 12.6567 11.9986 12.0412V4.82353C11.9986 4.20807 11.607 3.87236 10.9356 3.87236V3.64856H14.6843Z" fill="#333333"/>
<path id="Vector_4" fill-rule="evenodd" clip-rule="evenodd" d="M9.81653 1.01886L10.2082 3.92832H10.0403C9.48083 2.41764 8.41775 1.41052 6.45947 1.41052V11.6496C6.45947 12.7686 7.07493 13.1043 7.74634 13.1043V13.3281H3.27025V13.1043C3.88571 13.1043 4.66903 12.7686 4.66903 11.6496V1.35457C2.65479 1.35457 1.70362 2.30574 0.976256 3.92832H0.808403L1.14411 1.01886H9.81653Z" fill="#333333"/>
<path id="Vector_5" fill-rule="evenodd" clip-rule="evenodd" d="M64.4808 10.1389C64.4808 11.6496 65.5438 12.7686 67.1105 12.7686C67.7819 12.7686 68.5652 12.4329 69.1247 11.8174L65.9915 7.84488C65.2081 8.01273 64.4808 8.852 64.4808 10.1389ZM68.7331 4.15211C68.7331 2.92118 68.1736 2.30572 67.1105 2.30572C66.0474 2.30572 65.4319 2.92118 65.4319 3.9283C65.4319 5.10328 66.9986 6.66991 66.9986 6.66991C68.2295 5.99849 68.7331 5.27113 68.7331 4.15211ZM67.2224 6.94966L69.908 10.3067C69.908 10.3067 70.1878 9.74722 70.2437 9.24366C70.2437 8.6282 69.908 8.40439 69.4045 8.29249V8.12464H72.3139C72.3139 8.12464 72.3699 8.29249 72.3139 8.29249C71.7544 8.40439 71.3628 8.57224 70.9711 8.852C70.6354 9.24366 70.4675 9.57936 70.1318 10.4746L71.3628 11.9853C71.9223 12.6007 72.5937 12.9364 73.377 12.9924V13.2162H70.1878V12.9924L69.2926 11.9293C68.5652 12.6567 67.3343 13.3281 66.1593 13.3281C64.257 13.3281 63.026 12.265 63.026 10.8103C63.026 9.18771 64.5367 8.18059 65.7117 7.39727C65.7117 7.39727 64.4248 5.94254 64.4248 4.59972C64.4248 3.08904 65.5998 1.91406 67.1664 1.91406C68.5652 1.91406 69.6842 2.92118 69.6842 4.15211C69.6842 5.66279 68.0616 6.27825 67.2224 6.94966Z" fill="#333333"/>
<path id="Vector_6" fill-rule="evenodd" clip-rule="evenodd" d="M86.5815 0.795044L86.6934 4.65567H86.4696C86.0779 2.47358 84.6232 1.24265 82.8327 1.24265C80.6506 1.24265 79.14 3.76045 79.14 7.17347C79.14 11.3698 80.8185 13.1043 83.1125 13.1043C85.5184 13.1043 86.4695 10.8662 86.6934 9.29961H86.9172V10.9781C86.5255 11.7055 85.2946 13.3281 82.7768 13.3281C79.5876 13.3281 77.0698 10.6984 77.0698 7.17347C77.0698 3.98426 79.8673 1.01885 82.7768 1.01885C84.4553 1.01885 84.9029 1.74621 85.5743 1.74621C86.0779 1.74621 86.3017 1.41051 86.3017 0.795044H86.5815V0.795044Z" fill="#333333"/>
<path id="Vector_7" fill-rule="evenodd" clip-rule="evenodd" d="M98.2752 11.4817C98.7788 11.4817 99.1704 11.8733 99.1704 12.3769C99.1704 12.8805 98.7788 13.2162 98.2752 13.2162C97.7717 13.2162 97.38 12.8805 97.38 12.3769C97.38 11.8733 97.7717 11.4817 98.2752 11.4817Z" fill="#333333"/>
<path id="Vector_8" fill-rule="evenodd" clip-rule="evenodd" d="M89.4909 8.29248C89.4909 11.2579 90.6659 13.1043 92.4563 13.1043C94.3027 13.1043 95.4777 11.4257 95.4777 8.29248C95.4777 5.43898 94.4706 3.87235 92.5123 3.81639C90.498 3.76044 89.4909 5.66278 89.4909 8.29248ZM92.4563 3.59259C95.1979 3.59259 97.4919 5.66278 97.4919 8.46034C97.4919 11.146 95.3098 13.2721 92.5123 13.2721C89.7707 13.2721 87.4767 11.09 87.4767 8.46034C87.4767 5.83063 89.7147 3.59259 92.4563 3.59259Z" fill="#333333"/>
<path id="Vector_9" fill-rule="evenodd" clip-rule="evenodd" d="M34.7707 5.66276L36.3933 9.63529H33.1482L34.7707 5.66276ZM40.142 13.0483C39.8063 13.0483 39.5266 12.7126 39.3587 12.4888C39.2468 12.265 35.4981 3.14496 35.4981 3.14496L32.0851 11.4817C31.6934 12.5447 31.1339 13.0483 30.4066 13.0483V13.2721H33.2041V13.0483C32.6446 12.9924 32.2529 12.7126 32.2529 12.3209C32.2529 11.9852 33.1482 9.85909 33.1482 9.85909H36.5052C36.5052 9.85909 37.4564 11.8733 37.4564 12.3209C37.5123 12.6566 36.9528 13.0483 36.4493 13.0483V13.2721H40.142V13.0483Z" fill="#333333"/>
<path id="Vector_10" fill-rule="evenodd" clip-rule="evenodd" d="M41.6527 11.5936C41.6527 12.4888 41.0932 12.8805 40.4777 13.0483V13.2721H43.2753V13.0483C42.492 12.8805 42.0444 12.321 42.0444 11.5936V5.32709L48.5907 13.44V5.60685C48.5907 4.48783 49.2061 3.81641 49.9335 3.81641V3.64856H46.8002V3.81641C47.6954 4.09617 48.3109 4.59973 48.3109 5.6628V10.4746L42.8277 3.64856H40.2539V3.81641C41.373 3.87236 41.6527 4.76758 41.6527 4.99139V11.5936Z" fill="#333333"/>
<path id="Vector_11" fill-rule="evenodd" clip-rule="evenodd" d="M50.2692 3.87236C50.6609 3.87236 50.7728 3.87236 51.0525 4.43188C51.0525 4.43188 54.0179 9.18772 54.0179 9.24367V12.0972C54.0179 12.7126 53.4584 13.0483 52.6751 13.1043V13.2722H56.8155V13.1043C56.0881 13.0483 55.5846 12.7126 55.5846 12.0972V8.74011C55.5846 8.74011 57.4869 5.32709 57.6547 4.99139C58.1024 4.26402 58.7178 3.81641 59.5011 3.76046V3.64856H56.1441L56.2 3.76046C57.2631 3.76046 57.5428 4.76758 57.1512 5.38304L55.3608 8.62821L53.2346 4.87948C52.8989 4.31997 53.3465 3.76046 54.1298 3.76046V3.64856H50.2692V3.87236Z" fill="#333333"/>
</g>
</svg>
